<svg width="16" height="16" viewBox="0 0 16 16" fill="none" xmlns="http://www.w3.org/2000/svg">
<g clip-path="url(#clip0_3197_866)">
<path d="M-0.237422 6.16432C-0.18246 5.9946 -0.0362382 5.87091 0.139802 5.84529L5.08522 5.12451L7.29693 0.629933C7.37564 0.469933 7.53812 0.368652 7.716 0.368652C7.89391 0.368652 8.05637 0.469933 8.1351 0.629933L10.3469 5.12451L15.2922 5.84529C15.4682 5.87091 15.6145 5.9946 15.6695 6.16429C15.7245 6.334 15.6786 6.52028 15.5512 6.64482L11.9728 10.1434L12.8175 15.0834C12.8475 15.2593 12.7755 15.437 12.6315 15.5419C12.5501 15.6012 12.4537 15.6314 12.3568 15.6314C12.2824 15.6314 12.2077 15.6136 12.1394 15.5776L7.71603 13.2451L3.29288 15.5775C3.13538 15.6606 2.9446 15.6467 2.80068 15.5419C2.65677 15.437 2.58464 15.2593 2.61471 15.0834L3.4596 10.1434L-0.119179 6.64478C-0.246551 6.52028 -0.292446 6.334 -0.237422 6.16432Z" fill="#C1C1C1" fill-opacity="0.3"/>
</g>
<defs>
<clipPath id="clip0_3197_866">
<rect width="16" height="16" fill="white" transform="matrix(-1 0 0 1 16 0)"/>
</clipPath>
</defs>
</svg>
