<svg width="16" height="16" viewBox="0 0 16 16" fill="none" xmlns="http://www.w3.org/2000/svg">
<path d="M0.0272264 6.16432C0.0821886 5.9946 0.228411 5.87091 0.40445 5.84529L5.34986 5.12451L7.56158 0.629933C7.64028 0.469933 7.80277 0.368652 7.98065 0.368652C8.15856 0.368652 8.32101 0.469933 8.39975 0.629933L10.6116 5.12451L15.5569 5.84529C15.7329 5.87091 15.8792 5.9946 15.9341 6.16429C15.9891 6.334 15.9433 6.52028 15.8159 6.64481L12.2375 10.1434L13.0821 15.0834C13.1122 15.2593 13.0401 15.437 12.8962 15.5419C12.8148 15.6012 12.7183 15.6314 12.6214 15.6314C12.547 15.6314 12.4724 15.6136 12.404 15.5776L7.98068 13.2451L3.55753 15.5775C3.40003 15.6606 3.20925 15.6467 3.06533 15.5419C2.92142 15.437 2.84929 15.2593 2.87935 15.0834L3.72425 10.1434L0.14547 6.64478C0.0180979 6.52028 -0.0277977 6.334 0.0272264 6.16432Z" fill="#FFB800"/>
</svg>
